<svg width="55" height="54" viewBox="0 0 55 54" fill="none" xmlns="http://www.w3.org/2000/svg">
<path d="M50.5543 10.9694C49.9586 10.1559 49.3694 9.34254 48.8506 8.52272L17.0058 26.8149L1.63422 18.0019C1.28142 18.9528 1.06577 19.9492 0.993737 20.9609L17.1531 30.3183L50.5543 10.9694Z" fill="#242424"/>
<path d="M17.0058 33.7001L0.494162 24.221C0.371975 24.804 0.322495 25.3999 0.346851 25.9951C0.346851 33.2424 3.22585 40.193 8.35051 45.3176C13.4752 50.4423 20.4257 53.3213 27.673 53.3213C34.9204 53.3213 41.8709 50.4423 46.9956 45.3176C52.1202 40.193 54.9992 33.2424 54.9992 25.9951C55.0299 21.6711 54.0147 17.4039 52.0402 13.5569L17.0058 33.7001Z" fill="#242424"/>
<path d="M46.6281 6.22979C45.8499 5.49523 45.0332 4.80254 44.1815 4.15463L17.0058 19.9297L3.90153 12.4489C3.4596 13.2623 3.01126 14.1526 2.49247 15.1133L16.8585 23.4075L46.6281 6.22979Z" fill="#242424"/>
<path d="M41.5171 2.38049C40.4885 1.76476 39.4185 1.22118 38.3147 0.753662L17.0058 13.0253L7.45621 7.63885C6.81573 8.27933 6.17524 9.11837 5.53476 9.93178L16.9354 16.4519L41.5171 2.38049Z" fill="#242424"/>
</svg>
