<svg width="54" height="50" viewBox="0 0 54 50" fill="none" xmlns="http://www.w3.org/2000/svg">
<path d="M36.5613 33.0965C37.2693 33.3206 37.8468 33.6755 38.294 34.1611C38.7411 34.6467 38.9647 35.0763 38.9647 35.4498C38.8529 37.0561 38.3871 38.8304 37.5673 40.7729C36.7476 42.7527 35.6856 44.9566 34.3814 47.3847C34.2696 47.6835 34.2137 47.945 34.2137 48.1691V48.2812C34.2137 48.3559 34.0088 48.6921 33.5989 49.2897C33.4871 49.4018 33.3381 49.4578 33.1518 49.4578C32.8537 49.4578 32.4997 49.2524 32.0898 48.8415C31.6799 48.4679 31.3446 48.1131 31.0837 47.7769C31.0092 47.478 30.9719 47.2539 30.9719 47.1045C30.9719 46.6189 31.2514 45.8158 31.8103 44.6951C31.9594 44.3963 32.3506 43.6492 32.9841 42.4538C33.6175 41.2585 34.1206 40.2126 34.4932 39.3161C34.8658 38.4569 35.108 37.7285 35.2198 37.1308L34.8286 36.6825C34.5305 36.8693 32.481 37.0187 28.6803 37.1308C28.3077 37.1308 28.0096 37.1495 27.786 37.1868C27.5624 37.1868 27.4134 37.1868 27.3389 37.1868C27.1525 37.0374 26.9662 36.9627 26.7799 36.9627C26.5191 36.9627 26.2583 37.0001 25.9974 37.0748L22.4761 37.1868H21.8054C21.5446 37.1868 21.3396 37.2055 21.1906 37.2429C20.4453 37.3923 19.8119 37.467 19.2902 37.467C18.694 37.467 18.1537 37.5044 17.6693 37.5791L14.3157 37.9153C12.937 38.0273 11.7073 38.1394 10.6267 38.2514C9.54613 38.3635 8.85677 38.4382 8.55868 38.4756C7.81343 38.4756 7.14271 38.625 6.54651 38.9238C5.98758 39.2227 5.59633 39.3908 5.37275 39.4281C4.81382 41.4453 4.12447 44.1161 3.3047 47.4407L2.96934 48.7294C2.89481 49.2897 2.4104 49.7006 1.51611 49.9621C0.845388 49.2524 0.39824 48.7294 0.174667 48.3932C-0.0116444 48.057 -0.0489067 47.6648 0.06288 47.2166C0.06288 47.366 0.23056 46.843 0.565921 45.6477C0.901281 44.4523 1.14349 43.3877 1.29253 42.4538L2.24272 38.2514C2.09367 38.0273 2.09367 37.7845 2.24272 37.523C2.39177 37.2242 2.65261 36.8506 3.02523 36.4024L6.77009 35.786C7.58986 35.5993 8.59594 34.9269 9.78833 33.7689C10.9807 32.6109 11.9682 31.4903 12.7507 30.407C14.7256 27.7921 16.2347 25.2333 17.278 22.7306C18.3587 20.2278 19.6628 16.6604 21.1906 12.0285C21.6005 10.9452 22.0476 9.61907 22.532 8.05017C22.8301 7.78869 23.0537 7.30308 23.2027 6.59334C23.3891 5.84625 23.4822 5.21122 23.4822 4.68825C23.2214 4.57619 22.9233 4.53884 22.5879 4.57619C22.2898 4.61354 22.0476 4.61354 21.8613 4.57619C21.4142 4.35206 21.0602 4.01587 20.7993 3.56761C20.5385 3.11936 20.4081 2.65242 20.4081 2.16681C20.4081 1.90533 20.4267 1.71856 20.464 1.60649C20.613 1.56914 20.818 1.58782 21.0788 1.66252C21.3769 1.69988 21.6936 1.71856 22.029 1.71856C22.4389 1.71856 22.7929 1.6812 23.091 1.60649C23.2773 1.56914 24.1343 1.4384 25.6621 1.21427C27.1898 0.990141 28.0468 0.822045 28.2331 0.709983C30.8415 0.448499 32.9096 0.280403 34.4373 0.205695C36.0023 0.09363 37.6978 0.0375977 39.5236 0.0375977C40.1198 0.0375977 40.6974 0.224371 41.2563 0.597917C41.8152 0.971465 42.1506 1.36369 42.2624 1.77459C42.286 2.43763 41.9802 3.91129 41.345 6.19556C40.9781 7.51467 40.5014 9.10411 39.9149 10.9639C38.3126 16.0067 36.8035 20.1718 35.3875 23.459C35.1267 24.2808 34.6609 25.5509 33.9902 27.2692L33.1518 29.5105L31.978 33.3767C32.0153 33.4887 32.0712 33.6381 32.1457 33.8249C32.2202 33.9743 32.3134 34.049 32.4252 34.049L33.2636 33.937C33.5989 33.8623 33.9529 33.7876 34.3255 33.7129C34.7354 33.6381 35.0149 33.5634 35.1639 33.4887C35.313 33.3767 35.4807 33.2272 35.667 33.0405C35.667 33.0405 35.6856 33.0405 35.7229 33.0405C35.7974 33.0031 35.8719 32.9844 35.9464 32.9844C36.0582 32.9844 36.2632 33.0218 36.5613 33.0965ZM30.6925 26.2046C30.8042 26.1672 31.3632 24.7851 32.3693 22.0582C33.4126 19.3313 34.1951 17.2208 34.7168 15.7266L35.2198 14.3258C36.375 11.0012 37.1947 8.57314 37.6791 7.0416C38.1635 5.4727 38.4803 4.18396 38.6293 3.17539C38.0331 3.06333 37.2134 3.00729 36.17 3.00729C34.605 3.00729 32.9655 3.11936 31.2514 3.34349C29.5746 3.56761 28.3449 3.84777 27.5624 4.18396L26.5005 6.81747C26.4632 6.96689 25.867 8.92803 24.7119 12.7009C23.5567 16.4737 21.8427 20.7508 19.5697 25.5322C17.2967 30.3136 15.1355 33.5448 13.086 35.2257C14.2412 35.2257 16.9613 35.0389 21.2465 34.6654C25.5316 34.2919 27.8233 34.0677 28.1214 33.993C28.3822 32.6109 28.6803 31.4342 29.0157 30.463C29.3883 29.4544 29.9472 28.0349 30.6925 26.2046Z" fill="#242424"/>
<path d="M42.2624 1.77459C42.286 2.43763 41.9802 3.91129 41.345 6.19556C41.7915 6.03962 42.3768 5.87337 43.1008 5.69683C44.4795 5.32328 45.5787 5.13651 46.3985 5.13651C46.6593 5.13651 46.8456 5.15519 46.9574 5.19254C48.1498 5.30461 49.0628 5.62212 49.6962 6.14509C50.3669 6.6307 50.7023 7.24705 50.7023 7.99414C50.7023 8.18091 50.665 8.46107 50.5905 8.83462C50.5905 9.507 50.3483 10.4595 49.8639 11.6923C49.3795 12.925 48.8764 13.9522 48.3548 14.774C47.1251 16.7912 45.3738 18.5095 43.1008 19.929C42.5046 20.3025 41.7221 20.6574 40.7533 20.9936C39.4491 21.4792 38.4616 21.722 37.7909 21.722C37.1202 21.722 36.7103 21.7407 36.5613 21.778C36.375 21.9648 36.3936 22.3757 36.6172 23.0107C36.878 23.6084 37.2134 23.9819 37.6232 24.1314C38.1449 24.2434 38.6666 24.2994 39.1883 24.2994C40.4179 24.2994 41.7035 24.038 43.0449 23.515C44.4236 22.992 45.7278 22.2449 46.9574 21.2737C49.1932 19.4433 50.9259 17.5756 52.1555 15.6705C53.3852 13.7654 54 11.9724 54 10.2915C54 9.91791 53.9441 9.48833 53.8323 9.00272C53.7578 8.47975 53.7205 8.14356 53.7205 7.99414C53.1616 6.76144 52.6958 5.86493 52.3232 5.30461C51.9878 4.74429 51.5966 4.24 51.1494 3.79174C50.4787 3.11936 49.6403 2.55904 48.6342 2.11078C47.6282 1.66253 46.6034 1.36369 45.5601 1.21427C44.5168 1.06485 42.2624 1.77459 42.2624 1.77459Z" fill="#242424"/>
</svg>
