<svg width="58" height="53" viewBox="0 0 58 53" fill="none" xmlns="http://www.w3.org/2000/svg">
<path d="M30.577 41.2292C28.9124 40.0054 28.1239 38.2134 28.1239 35.4598C28.1239 32.007 29.1752 27.8111 30.9275 25.9754C32.1541 24.7516 33.9063 24.1834 36.2719 24.1834C39.645 24.1834 43.8066 25.0576 45.5151 26.8495C46.6979 28.0296 47.2236 29.6468 47.2236 31.9196C47.2236 35.1976 46.3036 39.7868 44.2447 41.71C43.0619 42.7589 41.5287 43.2397 39.2946 43.2397C36.2719 43.196 32.4607 42.4967 30.577 41.2292ZM45.4275 48.4409L45.0332 51.5878L53.8384 52.6804L58 18.72L49.1949 17.6274L48.8006 20.9054H47.7492C46.435 18.5889 42.9305 15.442 36.2719 15.442C27.0287 15.442 20.1949 22.2603 18.9683 31.5699C18.8369 32.4878 18.7931 33.4056 18.7931 34.3235C18.7931 43.2397 24.8384 50.5388 34.3006 51.5878C34.8263 51.6315 35.352 51.6752 35.8776 51.6315C39.8202 51.6315 42.7991 49.9269 44.3323 48.4409H45.4275ZM5.73867 0.319336L0 46.0807L9.33082 47.2171L14.9819 1.45572L5.73867 0.319336Z" fill="#242424"/>
</svg>
