<svg width="205" height="36" viewBox="0 0 205 36" fill="none" xmlns="http://www.w3.org/2000/svg">
<path d="M67.1672 28.71H61.6476V12.7938H56.659V8.2803H72.1419V12.7938H67.1672V28.71ZM90.2519 16.972C90.2519 17.8943 89.9818 18.6582 89.4414 19.2637C88.9011 19.8692 88.1605 20.2512 87.2196 20.4095V20.5213C88.3561 20.6517 89.2272 21.043 89.8327 21.6951C90.4382 22.3379 90.741 23.167 90.741 24.1825C90.741 27.2008 88.2816 28.71 83.3628 28.71H74.741V12.8777H83.3908C85.6918 12.8777 87.4106 13.213 88.5471 13.8838C89.6836 14.5545 90.2519 15.5839 90.2519 16.972ZM85.1934 23.6515C85.1934 23.1577 85.0257 22.8037 84.6903 22.5894C84.355 22.3752 83.8706 22.268 83.2371 22.268H80.2048V25.1327H83.1812C84.5227 25.1327 85.1934 24.6389 85.1934 23.6515ZM84.8161 17.6986C84.8161 16.8695 84.3131 16.455 83.3069 16.455H80.2048V18.8305H83.0973C83.6749 18.8305 84.1034 18.7234 84.3829 18.5091C84.6717 18.2948 84.8161 18.0247 84.8161 17.6986ZM109.033 20.7589C109.033 23.3487 108.334 25.3702 106.937 26.8235C105.549 28.2675 103.602 28.9894 101.096 28.9894C98.6921 28.9894 96.7777 28.2488 95.3523 26.7676C93.9363 25.2864 93.2283 23.2835 93.2283 20.7589C93.2283 18.1784 93.9224 16.1755 95.3104 14.7502C96.7078 13.3155 98.6641 12.5982 101.179 12.5982C102.735 12.5982 104.109 12.9289 105.302 13.5903C106.494 14.2518 107.412 15.202 108.055 16.441C108.707 17.6707 109.033 19.11 109.033 20.7589ZM98.7759 20.7589C98.7759 22.119 98.9576 23.1577 99.3209 23.875C99.6842 24.583 100.294 24.937 101.151 24.937C101.999 24.937 102.595 24.583 102.94 23.875C103.294 23.1577 103.471 22.119 103.471 20.7589C103.471 19.4081 103.294 18.388 102.94 17.6986C102.586 17.0093 101.981 16.6646 101.124 16.6646C100.285 16.6646 99.6842 17.0093 99.3209 17.6986C98.9576 18.3787 98.7759 19.3988 98.7759 20.7589ZM117.026 12.8777V16.8602C117.026 17.0838 117.021 17.326 117.012 17.5868C117.012 17.8477 116.951 19.5059 116.83 22.5615L123.16 12.8777H129.197V28.71H124.334V24.42C124.334 22.9202 124.399 21.1455 124.53 19.096L118.227 28.71H112.163V12.8777H117.026ZM120.868 11.3685C118.642 11.3685 116.974 10.9353 115.866 10.0689C114.767 9.20257 114.152 7.86109 114.021 6.04449H118.577C118.623 6.95745 118.824 7.61887 119.178 8.02877C119.532 8.43867 120.095 8.64362 120.868 8.64362C122.266 8.64362 123.03 7.77724 123.16 6.04449H127.785C127.404 9.59383 125.098 11.3685 120.868 11.3685ZM161.309 35.068H155.929V28.71H144.023V35.068H138.643V24.1825H140.334C141.554 22.1143 142.56 19.7248 143.352 17.0139C144.144 14.2937 144.656 11.3825 144.889 8.2803H158.514V24.1825H161.309V35.068ZM152.952 24.1825V12.7938H149.319C148.937 16.781 147.889 20.5772 146.175 24.1825H152.952ZM178.846 20.7589C178.846 23.3487 178.147 25.3702 176.75 26.8235C175.362 28.2675 173.415 28.9894 170.909 28.9894C168.505 28.9894 166.591 28.2488 165.165 26.7676C163.749 25.2864 163.041 23.2835 163.041 20.7589C163.041 18.1784 163.735 16.1755 165.123 14.7502C166.521 13.3155 168.477 12.5982 170.992 12.5982C172.548 12.5982 173.922 12.9289 175.115 13.5903C176.307 14.2518 177.225 15.202 177.867 16.441C178.52 17.6707 178.846 19.11 178.846 20.7589ZM168.589 20.7589C168.589 22.119 168.771 23.1577 169.134 23.875C169.497 24.583 170.107 24.937 170.964 24.937C171.812 24.937 172.408 24.583 172.753 23.875C173.107 23.1577 173.284 22.119 173.284 20.7589C173.284 19.4081 173.107 18.388 172.753 17.6986C172.399 17.0093 171.794 16.6646 170.936 16.6646C170.098 16.6646 169.497 17.0093 169.134 17.6986C168.771 18.3787 168.589 19.3988 168.589 20.7589ZM202.783 28.71H197.892V16.8881C197.594 18.0899 197.254 19.3336 196.872 20.6191C196.499 21.8954 195.628 24.5924 194.259 28.71H190.542L188.907 23.6515C188.357 21.956 187.78 20.0509 187.174 17.9362L186.867 16.8881V28.71H181.976V12.8777H189.452L190.681 16.5807C190.914 17.2887 191.236 18.4159 191.646 19.9624C192.056 21.4995 192.307 22.5662 192.4 23.1624C192.456 22.7245 192.787 21.4855 193.392 19.4453L193.937 17.5729L195.46 12.8777H202.783V28.71Z" fill="#242424"/>
<path d="M17.4756 6.38895C16.6606 5.57402 15.3394 5.57402 14.5244 6.38895L1.24444 19.6689C0.429515 20.4839 0.429515 21.8051 1.24444 22.6201C2.05937 23.435 3.38063 23.435 4.19555 22.6201L16 10.8156L27.8044 22.6201C28.6194 23.435 29.9406 23.435 30.7556 22.6201C31.5705 21.8051 31.5705 20.4839 30.7556 19.6689L17.4756 6.38895ZM13.9132 28.1358C13.9132 29.2883 14.8475 30.2225 16 30.2225C17.1525 30.2225 18.0868 29.2883 18.0868 28.1358L13.9132 28.1358ZM13.9132 7.8645L13.9132 28.1358L18.0868 28.1358L18.0868 7.8645L13.9132 7.8645Z" fill="#242424"/>
</svg>
