<svg width="41" height="54" viewBox="0 0 41 54" fill="none" xmlns="http://www.w3.org/2000/svg">
<rect x="0.00195312" y="15.12" width="8.3729" height="38.3998" fill="#242424"/>
<path d="M8.375 31.8657H19.202L32.9162 53.5198H22.0892L8.375 31.8657Z" fill="#242424"/>
<path fill-rule="evenodd" clip-rule="evenodd" d="M25.4092 26.6688C28.5983 26.6688 31.1836 24.0835 31.1836 20.8944C31.1836 17.7053 28.5983 15.12 25.4092 15.12C22.2201 15.12 19.6348 17.7053 19.6348 20.8944C19.6348 24.0835 22.2201 26.6688 25.4092 26.6688ZM25.4092 24.5034C27.4024 24.5034 29.0182 22.8876 29.0182 20.8944C29.0182 18.9012 27.4024 17.2854 25.4092 17.2854C23.416 17.2854 21.8002 18.9012 21.8002 20.8944C21.8002 22.8876 23.416 24.5034 25.4092 24.5034Z" fill="#242424"/>
<path fill-rule="evenodd" clip-rule="evenodd" d="M27.5036 8.04631C29.4569 8.04631 31.0404 6.46282 31.0404 4.50948C31.0404 2.55615 29.4569 0.972656 27.5036 0.972656C25.5503 0.972656 23.9668 2.55615 23.9668 4.50948C23.9668 6.46282 25.5503 8.04631 27.5036 8.04631ZM27.5036 6.45835C28.58 6.45835 29.4525 5.58581 29.4525 4.50948C29.4525 3.43315 28.58 2.56062 27.5036 2.56062C26.4273 2.56062 25.5548 3.43315 25.5548 4.50948C25.5548 5.58581 26.4273 6.45835 27.5036 6.45835Z" fill="#242424"/>
<path fill-rule="evenodd" clip-rule="evenodd" d="M36.742 18.1515C39.094 18.1515 41.0007 16.2449 41.0007 13.8929C41.0007 11.5409 39.094 9.63428 36.742 9.63428C34.39 9.63428 32.4834 11.5409 32.4834 13.8929C32.4834 16.2449 34.39 18.1515 36.742 18.1515ZM36.742 16.4192C38.1373 16.4192 39.2683 15.2881 39.2683 13.8929C39.2683 12.4977 38.1373 11.3666 36.742 11.3666C35.3468 11.3666 34.2157 12.4977 34.2157 13.8929C34.2157 15.2881 35.3468 16.4192 36.742 16.4192Z" fill="#242424"/>
</svg>
