<svg width="188" height="40" viewBox="0 0 188 40" fill="none" xmlns="http://www.w3.org/2000/svg">
<path fill-rule="evenodd" clip-rule="evenodd" d="M28.5924 28.6369C26.6836 29.4721 25.3713 31.3813 25.3713 33.6086C25.3713 36.5916 27.797 39.0575 30.8193 39.0575C33.8416 39.0575 36.3071 36.5518 36.2276 33.529C36.3469 29.5119 38.4545 26.4493 41.6359 24.4607V24.4209C43.4652 23.5459 44.6979 21.6368 44.6979 19.5288C44.6979 17.5003 43.6242 15.6707 41.8347 14.7162C38.6534 12.8071 36.4662 9.38653 36.2674 5.44896C36.2674 2.46595 33.8018 0 30.8193 0C27.797 0 25.3713 2.46595 25.3713 5.44896C25.3713 7.47741 26.4847 9.26721 28.1549 10.182C35.3925 14.1593 35.8697 24.4209 28.5924 28.6369ZM18.8495 15.7503C18.8495 15.2332 19.0483 14.8355 19.3665 14.4775C19.6448 14.2389 19.9232 14.0798 20.2811 14.0003C20.4402 13.9605 20.639 13.9207 20.8378 13.9207C21.3946 13.9207 22.1501 14.1991 22.5478 14.5571L25.8882 17.9378C26.3257 18.3356 26.5245 18.8924 26.5245 19.4094C26.5245 19.9663 26.3257 20.5231 25.8882 20.9208L22.3092 24.5004C22.0308 24.7789 21.6332 24.9777 21.2355 25.097C20.9571 25.1368 20.6788 25.1368 20.4004 25.097C19.8834 25.0175 19.446 24.7391 19.1279 24.2618C18.9688 23.9834 18.8495 23.6652 18.8495 23.3072V15.7503ZM13.8786 0C10.8961 0 8.47034 2.46595 8.47034 5.44896C8.47034 8.47175 10.8961 10.8979 13.8786 10.8979C16.9009 10.8979 19.3267 8.47175 19.3267 5.44896C19.3267 2.46595 16.9009 0 13.8786 0ZM13.8786 28.1596C10.8961 28.1596 8.47034 30.5858 8.47034 33.6086C8.47034 36.5916 10.8961 39.0575 13.8786 39.0575C16.9009 39.0575 19.3267 36.5916 19.3267 33.6086C19.3267 30.5858 16.9009 28.1596 13.8786 28.1596ZM5.44806 14.0798C2.42578 14.0798 0 16.5458 0 19.5288C0 22.5515 2.42578 24.9777 5.44806 24.9777C8.43057 24.9777 10.8564 22.5515 10.8564 19.5288C10.8564 16.5458 8.43057 14.0798 5.44806 14.0798Z" fill="url(#paint0_linear)"/>
<path d="M177.183 14.8859V18.0678H180.284V28.5282H183.863V18.0678H187.999V14.8859H183.863V10.6301H180.284V14.8859H177.183Z" fill="#242424"/>
<path d="M175.791 28.5285V14.8862H172.212V28.5285H175.791Z" fill="#242424"/>
<path d="M174.04 13.6134C175.035 13.6134 175.83 12.8179 175.83 11.8236C175.83 10.869 175.035 10.0338 174.04 10.0338C173.086 10.0338 172.251 10.869 172.251 11.8236C172.251 12.8179 173.086 13.6134 174.04 13.6134Z" fill="#242424"/>
<path d="M139.684 28.5283H143.223V21.0509C143.223 18.9032 144.336 17.6304 146.046 17.6304C148.154 17.6304 149.108 19.46 149.108 21.0509V28.5283H152.687V21.0509C152.687 19.46 153.642 17.6304 155.71 17.6304C157.459 17.6304 158.573 18.9032 158.573 21.0509V28.5283H162.112V20.5339C162.112 16.3577 158.454 14.6076 155.789 14.6076C153.841 14.6076 152.091 15.3633 150.938 16.5168C149.824 15.3633 148.074 14.6076 146.086 14.6076C142.706 14.6076 139.684 16.9543 139.684 20.5339V28.5283Z" fill="#242424"/>
<path d="M131.054 28.9258C132.923 28.9258 135.11 28.0508 136.462 26.4201C137.814 24.8292 138.212 23.1587 138.212 21.7268C138.212 20.5336 137.894 19.3404 137.297 18.187C136.621 17.0733 135.746 16.1586 134.593 15.5222C133.48 14.8858 132.287 14.5676 131.054 14.5676C129.185 14.5676 127.276 15.4029 126.162 16.5165C124.413 18.2666 123.936 20.3348 123.936 21.7268C123.936 25.6246 127.157 28.9258 131.054 28.9258ZM127.475 21.8859C127.475 21.17 127.674 20.4541 128.111 19.8575C128.946 18.6245 130.219 18.2268 131.094 18.2268C132.088 18.2268 132.963 18.5847 133.678 19.3007C134.394 20.0166 134.752 20.8916 134.752 21.8859C134.752 22.8803 134.394 23.7155 133.678 24.4314C132.963 25.1474 132.088 25.5053 131.094 25.5053C130.378 25.5053 129.702 25.2667 129.105 24.8689C127.872 24.0337 127.475 22.761 127.475 21.8859Z" fill="#242424"/>
<path d="M111.688 26.8975C113.676 28.1702 115.585 28.8066 117.334 28.8066C118.329 28.8066 119.243 28.6475 120.158 28.2498C121.868 27.5736 122.981 26.3009 122.981 24.5906C122.981 22.4826 121.709 21.6474 120.635 21.0508C120.237 20.8519 119.482 20.5735 118.368 20.1758C117.255 19.778 116.579 19.4598 116.34 19.2212C116.102 18.9826 115.982 18.7439 115.982 18.5053C115.982 17.9882 116.38 17.6303 117.374 17.6303C117.772 17.6303 118.209 17.7496 118.766 17.9087C119.243 18.1075 120.039 18.5053 121.072 19.0621L122.663 16.4768C121.152 15.3632 119.164 14.6473 117.414 14.6473C116.499 14.6473 115.664 14.8063 114.869 15.1245C113.278 15.8007 112.403 17.0337 112.403 18.6246C112.403 20.2553 113.278 21.4485 116.062 22.4826C117.493 22.9997 118.289 23.3576 118.567 23.5167C119.044 23.7951 119.362 24.1531 119.362 24.5906C119.362 25.2668 118.647 25.8236 117.295 25.8236C115.943 25.8236 114.392 25.0679 113.199 24.2327L111.688 26.8975Z" fill="#242424"/>
<path d="M99.7178 26.8975C101.706 28.1702 103.615 28.8066 105.365 28.8066C106.319 28.8066 107.273 28.6475 108.148 28.2498C109.898 27.5736 110.972 26.3009 110.972 24.5906C110.972 22.4826 109.699 21.6474 108.665 21.0508C108.268 20.8519 107.512 20.5735 106.399 20.1758C105.285 19.778 104.609 19.4598 104.37 19.2212C104.132 18.9826 104.013 18.7439 104.013 18.5053C104.013 17.9882 104.41 17.6303 105.404 17.6303C105.802 17.6303 106.24 17.7496 106.757 17.9087C107.273 18.1075 108.029 18.5053 109.103 19.0621L110.693 16.4768C109.143 15.3632 107.154 14.6473 105.444 14.6473C104.53 14.6473 103.655 14.8063 102.899 15.1245C101.308 15.8007 100.394 17.0337 100.394 18.6246C100.394 20.2553 101.308 21.4485 104.092 22.4826C105.484 22.9997 106.319 23.3576 106.597 23.5167C107.075 23.7951 107.393 24.1531 107.393 24.5906C107.393 25.2668 106.677 25.8236 105.325 25.8236C103.973 25.8236 102.422 25.0679 101.229 24.2327L99.7178 26.8975Z" fill="#242424"/>
<path d="M92.2413 28.9258C94.1103 28.9258 96.2975 28.0508 97.6496 26.4201C99.0017 24.8292 99.3993 23.1587 99.3993 21.7268C99.3993 20.5336 99.0812 19.3404 98.4449 18.187C97.8087 17.0733 96.9338 16.1586 95.7806 15.5222C94.6273 14.8858 93.4741 14.5676 92.2413 14.5676C90.3723 14.5676 88.4635 15.4029 87.35 16.5165C85.6002 18.2666 85.123 20.3348 85.123 21.7268C85.123 25.6246 88.3442 28.9258 92.2413 28.9258ZM88.6623 21.8859C88.6623 21.17 88.8611 20.4541 89.2588 19.8575C90.0939 18.6245 91.3664 18.2268 92.2811 18.2268C93.2752 18.2268 94.1501 18.5847 94.8659 19.3007C95.5817 20.0166 95.8999 20.8916 95.8999 21.8859C95.8999 22.8803 95.5817 23.7155 94.8659 24.4314C94.1501 25.1474 93.2752 25.5053 92.2811 25.5053C91.5653 25.5053 90.8892 25.2667 90.2927 24.8689C89.06 24.0337 88.6623 22.761 88.6623 21.8859Z" fill="#242424"/>
<path d="M83.4133 28.5281V9.03915H79.874V28.5281H83.4133Z" fill="#242424"/>
<path d="M71.5624 28.5284C75.6583 28.5284 78.0444 26.5397 78.0444 22.9998C78.0444 21.2896 77.3286 19.8975 75.8572 18.7839C77.3286 17.71 78.0444 16.3179 78.0444 14.6076C78.0444 11.1076 75.6583 9.07913 71.5624 9.07913L60.9844 9.03936V28.5284H71.5624ZM64.6429 20.4941H71.6419C73.2326 20.4941 74.187 21.4089 74.187 22.801C74.187 24.1533 73.1928 25.1476 71.6021 25.1476H64.6032L64.6429 20.4941ZM64.6032 12.4997H71.6021C73.1928 12.4997 74.187 13.4542 74.187 14.8065C74.187 16.2384 73.2326 17.1531 71.6419 17.1531H64.6429L64.6032 12.4997Z" fill="#242424"/>
<defs>
<linearGradient id="paint0_linear" x1="-0.000397669" y1="19.5288" x2="44.7011" y2="19.5288" gradientUnits="userSpaceOnUse">
<stop stop-color="#FFCC67"/>
<stop offset="0.231373" stop-color="#FE785C"/>
<stop offset="0.501961" stop-color="#EA5BDA"/>
<stop offset="1" stop-color="#492AF3"/>
</linearGradient>
</defs>
</svg>
