<svg width="21" height="12" viewBox="0 0 21 12" fill="none" xmlns="http://www.w3.org/2000/svg">
<path d="M20.8128 10.7032C20.7564 10.6086 20.4072 9.84878 18.7271 8.28709C16.9682 6.65178 17.2045 6.91732 19.323 4.0897C20.6133 2.36763 21.1292 1.31598 20.9677 0.866405C20.8141 0.437859 19.8651 0.550911 19.8651 0.550911L16.7096 0.569315C16.7096 0.569315 16.476 0.537766 16.3014 0.641616C16.1321 0.744151 16.0232 0.980772 16.0232 0.980772C16.0232 0.980772 15.5231 2.31373 14.8563 3.44688C13.4505 5.83806 12.8874 5.96426 12.6577 5.81572C12.1234 5.46999 12.2573 4.42491 12.2573 3.6835C12.2573 1.36594 12.6078 0.399737 11.5735 0.149971C11.2296 0.0671538 10.9775 0.0119424 10.0994 0.00274048C8.9732 -0.00909055 8.01894 0.00668415 7.47947 0.27091C7.11982 0.447061 6.84286 0.840114 7.01218 0.862462C7.22089 0.890068 7.69342 0.989974 7.94413 1.33176C8.26834 1.77214 8.25652 2.76331 8.25652 2.76331C8.25652 2.76331 8.44291 5.49102 7.82206 5.83018C7.39546 6.06285 6.81136 5.5883 5.55783 3.41796C4.91597 2.30716 4.43031 1.07805 4.43031 1.07805C4.43031 1.07805 4.33711 0.849316 4.17041 0.727062C3.96827 0.578517 3.68475 0.531193 3.68475 0.531193L0.684156 0.549597C0.684156 0.549597 0.233935 0.562743 0.0685481 0.758612C-0.0784628 0.933448 0.0567347 1.29364 0.0567347 1.29364C0.0567347 1.29364 2.40628 6.79769 5.0656 9.57272C7.50572 12.1164 10.2753 11.9494 10.2753 11.9494H11.5301C11.5301 11.9494 11.9095 11.9074 12.1024 11.6984C12.2809 11.5064 12.2744 11.1463 12.2744 11.1463C12.2744 11.1463 12.2494 9.45967 13.0318 9.21122C13.8022 8.96671 14.7919 10.8413 15.8407 11.563C16.6335 12.1085 17.236 11.9889 17.236 11.9889L20.041 11.9494C20.041 11.9494 21.5085 11.8587 20.8128 10.7032Z" fill="white"/>
</svg>
