<svg width="32" height="42" viewBox="0 0 32 42" fill="none" xmlns="http://www.w3.org/2000/svg">
<rect y="11.0422" width="6.53516" height="29.9716" fill="#028087"/>
<path d="M6.53516 24.1125H14.9858L25.6899 41.0138H17.2393L6.53516 24.1125Z" fill="#58BDAD"/>
<path fill-rule="evenodd" clip-rule="evenodd" d="M19.8302 20.0562C22.3194 20.0562 24.3373 18.0383 24.3373 15.5492C24.3373 13.06 22.3194 11.0422 19.8302 11.0422C17.3411 11.0422 15.3232 13.06 15.3232 15.5492C15.3232 18.0383 17.3411 20.0562 19.8302 20.0562ZM19.8302 18.3661C21.386 18.3661 22.6471 17.1049 22.6471 15.5492C22.6471 13.9935 21.386 12.7323 19.8302 12.7323C18.2745 12.7323 17.0134 13.9935 17.0134 15.5492C17.0134 17.1049 18.2745 18.3661 19.8302 18.3661Z" fill="#FDED00"/>
<path fill-rule="evenodd" clip-rule="evenodd" d="M21.4646 5.52108C22.9892 5.52108 24.2252 4.28515 24.2252 2.76054C24.2252 1.23594 22.9892 0 21.4646 0C19.9401 0 18.7041 1.23594 18.7041 2.76054C18.7041 4.28515 19.9401 5.52108 21.4646 5.52108ZM21.4646 4.28166C22.3048 4.28166 22.9858 3.60063 22.9858 2.76054C22.9858 1.92045 22.3048 1.23943 21.4646 1.23943C20.6245 1.23943 19.9435 1.92045 19.9435 2.76054C19.9435 3.60063 20.6245 4.28166 21.4646 4.28166Z" fill="#FDED00"/>
<path fill-rule="evenodd" clip-rule="evenodd" d="M28.6765 13.4084C30.5122 13.4084 32.0004 11.9202 32.0004 10.0844C32.0004 8.2487 30.5122 6.76053 28.6765 6.76053C26.8407 6.76053 25.3525 8.2487 25.3525 10.0844C25.3525 11.9202 26.8407 13.4084 28.6765 13.4084ZM28.6765 12.0563C29.7655 12.0563 30.6483 11.1734 30.6483 10.0844C30.6483 8.99544 29.7655 8.11263 28.6765 8.11263C27.5874 8.11263 26.7046 8.99544 26.7046 10.0844C26.7046 11.1734 27.5874 12.0563 28.6765 12.0563Z" fill="#FDED00"/>
</svg>
