<svg width="43" height="24" viewBox="0 0 43 24" fill="none" xmlns="http://www.w3.org/2000/svg">
<path d="M18.6791 17.3541C18.6791 18.3445 18.4729 19.2007 18.0606 19.9228C17.6483 20.6243 17.0813 21.2021 16.3597 21.656C15.6381 22.1099 14.7928 22.4503 13.8238 22.6773C12.8754 22.8836 11.8652 22.9868 10.7931 22.9868H0V1.01314H12.7414C13.5042 1.01314 14.1949 1.1782 14.8134 1.50832C15.4319 1.83844 15.9577 2.27173 16.3906 2.80817C16.8236 3.32398 17.1535 3.92233 17.3802 4.6032C17.6276 5.26344 17.7513 5.94431 17.7513 6.64582C17.7513 7.67744 17.4833 8.6678 16.9473 9.6169C16.4319 10.5454 15.6484 11.2469 14.5969 11.7214C15.8546 12.0928 16.8442 12.7427 17.5658 13.6712C18.308 14.579 18.6791 15.8067 18.6791 17.3541ZM12.5558 16.1161C12.5558 15.5797 12.4115 15.1361 12.1229 14.7853C11.8342 14.414 11.4631 14.2283 11.0095 14.2283H6.03051V17.9112H10.7931C11.2879 17.9112 11.7002 17.7564 12.0301 17.4469C12.3806 17.1375 12.5558 16.6939 12.5558 16.1161ZM6.03051 6.15064V9.52405H10.1436C10.556 9.52405 10.9271 9.41057 11.257 9.18362C11.6074 8.95666 11.7827 8.50274 11.7827 7.82187C11.7827 7.22353 11.6384 6.80056 11.3497 6.55297C11.0611 6.28475 10.7209 6.15064 10.3292 6.15064H6.03051Z" fill="#2D4CD1"/>
<path d="M36.3819 21.9345C35.6191 22.3265 34.8047 22.6257 33.9388 22.832C33.0935 23.0383 32.1966 23.1415 31.2482 23.1415C29.5782 23.1415 28.0629 22.832 26.7022 22.213C25.3414 21.5734 24.1766 20.7378 23.2076 19.7062C22.2386 18.6539 21.486 17.4573 20.95 16.1161C20.4139 14.775 20.1459 13.3926 20.1459 11.969C20.1459 10.5247 20.4242 9.13204 20.9809 7.79092C21.5376 6.44981 22.3107 5.26344 23.3003 4.23181C24.3106 3.20019 25.4961 2.3852 26.8568 1.78686C28.2381 1.16789 29.7432 0.858398 31.3719 0.858398C33.0419 0.858398 34.5573 1.18852 35.918 1.84876C37.2787 2.48837 38.4436 3.3343 39.4126 4.38656C40.3816 5.43882 41.1238 6.6355 41.6393 7.97662C42.1753 9.31773 42.4433 10.6898 42.4433 12.0928C42.4433 13.4545 42.1959 14.7647 41.7011 16.0233C41.2269 17.2612 40.5466 18.3754 39.66 19.3658L43 22.9868H37.3715L36.3819 21.9345ZM31.3101 17.7874C31.7637 17.7874 32.1451 17.7461 32.4543 17.6636L28.836 13.7021H34.4645L35.6706 15.0329C35.8974 14.5584 36.0623 14.0632 36.1654 13.5474C36.2685 13.0316 36.32 12.5055 36.32 11.969C36.32 11.2262 36.217 10.5144 36.0108 9.83354C35.8046 9.13204 35.4851 8.51306 35.0521 7.97662C34.6398 7.44017 34.114 7.0172 33.4749 6.70772C32.8564 6.37759 32.1245 6.21253 31.2792 6.21253C30.4132 6.21253 29.6607 6.38791 29.0216 6.73866C28.4031 7.06878 27.8876 7.51238 27.4753 8.06946C27.063 8.60591 26.7537 9.22488 26.5475 9.92639C26.362 10.6073 26.2692 11.3088 26.2692 12.0309C26.2692 12.7737 26.3723 13.4958 26.5785 14.1973C26.7846 14.8782 27.0939 15.4868 27.5062 16.0233C27.9186 16.5597 28.434 16.993 29.0525 17.3231C29.6916 17.6326 30.4442 17.7874 31.3101 17.7874Z" fill="#2D4CD1"/>
</svg>
