<svg width="46" height="25" viewBox="0 0 46 25" fill="none" xmlns="http://www.w3.org/2000/svg">
<path d="M20.6538 18.3041C20.6538 19.3362 20.4389 20.2285 20.0092 20.9811C19.5795 21.7122 18.9886 22.3143 18.2366 22.7873C17.4845 23.2604 16.6036 23.6152 15.5937 23.8517C14.6054 24.0667 13.5525 24.1742 12.4352 24.1742H1.18713V1.27418H14.4657C15.2607 1.27418 15.9805 1.4462 16.6251 1.79024C17.2697 2.13428 17.8176 2.58583 18.2688 3.14489C18.72 3.68245 19.0638 4.30602 19.3001 5.0156C19.558 5.70367 19.6869 6.41325 19.6869 7.14434C19.6869 8.21945 19.4076 9.25157 18.8489 10.2407C18.3118 11.2083 17.4953 11.9394 16.3995 12.4339C17.7101 12.821 18.7415 13.4983 19.4935 14.4659C20.267 15.412 20.6538 16.6914 20.6538 18.3041ZM14.2723 17.0139C14.2723 16.4549 14.1219 15.9926 13.8211 15.627C13.5203 15.24 13.1335 15.0465 12.6608 15.0465H7.47189V18.8846H12.4352C12.9509 18.8846 13.3806 18.7234 13.7244 18.4008C14.0897 18.0783 14.2723 17.616 14.2723 17.0139ZM7.47189 6.62828V10.1439H11.7584C12.1881 10.1439 12.5749 10.0257 12.9187 9.78913C13.284 9.5526 13.4666 9.07955 13.4666 8.36997C13.4666 7.7464 13.3162 7.3056 13.0154 7.04757C12.7146 6.76804 12.36 6.62828 11.9518 6.62828H7.47189Z" fill="#F54068"/>
<path d="M39.1029 23.0776C38.3079 23.4861 37.4592 23.7979 36.5568 24.013C35.6758 24.228 34.7412 24.3355 33.7528 24.3355C32.0124 24.3355 30.4332 24.013 29.0151 23.3679C27.597 22.7013 26.383 21.8305 25.3731 20.7553C24.3633 19.6587 23.579 18.4116 23.0204 17.0139C22.4617 15.6163 22.1824 14.1756 22.1824 12.692C22.1824 11.1868 22.4725 9.73537 23.0526 8.33772C23.6327 6.94006 24.4385 5.70367 25.4698 4.62856C26.5227 3.55344 27.7581 2.70409 29.1762 2.08052C30.6158 1.43545 32.1843 1.11292 33.8817 1.11292C35.6221 1.11292 37.2014 1.45695 38.6195 2.14503C40.0376 2.8116 41.2516 3.6932 42.2614 4.78982C43.2713 5.88645 44.0448 7.13358 44.5819 8.53124C45.1406 9.92889 45.4199 11.3588 45.4199 12.821C45.4199 14.2401 45.1621 15.6055 44.6464 16.9172C44.1522 18.2073 43.4432 19.3684 42.5193 20.4006L46 24.1742H40.1343L39.1029 23.0776ZM33.8173 18.7556C34.29 18.7556 34.6875 18.7126 35.0098 18.6266L31.2389 14.4982H37.1047L38.3616 15.8851C38.598 15.3905 38.7699 14.8744 38.8773 14.3369C38.9847 13.7993 39.0385 13.251 39.0385 12.692C39.0385 11.9179 38.931 11.176 38.7162 10.4665C38.5013 9.73537 38.1683 9.0903 37.717 8.53124C37.2873 7.97218 36.7394 7.53138 36.0733 7.20884C35.4288 6.8648 34.666 6.69278 33.785 6.69278C32.8826 6.69278 32.0984 6.87555 31.4323 7.2411C30.7877 7.58513 30.2505 8.04744 29.8208 8.628C29.3911 9.18706 29.0688 9.83213 28.8539 10.5632C28.6605 11.2728 28.5639 12.0039 28.5639 12.7565C28.5639 13.5305 28.6713 14.2831 28.8862 15.0142C29.101 15.7238 29.4233 16.3581 29.853 16.9172C30.2828 17.4762 30.8199 17.9278 31.4645 18.2718C32.1306 18.5944 32.9148 18.7556 33.8173 18.7556Z" fill="#F54068"/>
<path d="M19.4666 17.1912C19.4666 18.2233 19.2518 19.1156 18.822 19.8682C18.3923 20.5993 17.8014 21.2014 17.0494 21.6744C16.2974 22.1475 15.4165 22.5022 14.4066 22.7388C13.4182 22.9538 12.3654 23.0613 11.2481 23.0613H0V0.161268H13.2786C14.0736 0.161268 14.7934 0.333287 15.4379 0.677326C16.0825 1.02136 16.6304 1.47291 17.0817 2.03198C17.5329 2.56954 17.8766 3.1931 18.113 3.90268C18.3708 4.59076 18.4998 5.30034 18.4998 6.03142C18.4998 7.10654 18.2204 8.13865 17.6618 9.12776C17.1246 10.0954 16.3081 10.8265 15.2123 11.321C16.523 11.7081 17.5544 12.3854 18.3064 13.353C19.0799 14.2991 19.4666 15.5785 19.4666 17.1912ZM13.0852 15.901C13.0852 15.342 12.9348 14.8797 12.634 14.5141C12.3332 14.1271 11.9464 13.9335 11.4737 13.9335H6.28476V17.7717H11.2481C11.7638 17.7717 12.1935 17.6105 12.5373 17.2879C12.9026 16.9654 13.0852 16.5031 13.0852 15.901ZM6.28476 5.51536V9.031H10.5713C11.001 9.031 11.3878 8.91274 11.7316 8.67621C12.0968 8.43969 12.2795 7.96664 12.2795 7.25706C12.2795 6.63349 12.129 6.19269 11.8282 5.93466C11.5274 5.65513 11.1729 5.51536 10.7647 5.51536H6.28476Z" fill="#2D4CD1"/>
<path d="M37.9158 21.9647C37.1208 22.3732 36.2721 22.685 35.3696 22.9C34.4887 23.1151 33.5541 23.2226 32.5657 23.2226C30.8253 23.2226 29.246 22.9 27.8279 22.255C26.4098 21.5884 25.1959 20.7176 24.186 19.6424C23.1761 18.5458 22.3919 17.2987 21.8332 15.901C21.2746 14.5034 20.9953 13.0627 20.9953 11.579C20.9953 10.0739 21.2853 8.62246 21.8655 7.2248C22.4456 5.82715 23.2513 4.59076 24.2827 3.51564C25.3355 2.44052 26.571 1.59118 27.9891 0.967607C29.4287 0.322535 30.9972 0 32.6946 0C34.435 0 36.0142 0.344038 37.4323 1.03211C38.8504 1.69869 40.0644 2.58029 41.0743 3.67691C42.0841 4.77353 42.8576 6.02067 43.3948 7.41832C43.9535 8.81598 44.2328 10.2459 44.2328 11.7081C44.2328 13.1272 43.9749 14.4926 43.4593 15.8043C42.9651 17.0944 42.256 18.2555 41.3321 19.2876L44.8129 23.0613H38.9471L37.9158 21.9647ZM32.6301 17.6427C33.1028 17.6427 33.5003 17.5997 33.8226 17.5137L30.0518 13.3852H35.9176L37.1745 14.7721C37.4109 14.2776 37.5827 13.7615 37.6902 13.224C37.7976 12.6864 37.8513 12.1381 37.8513 11.579C37.8513 10.8049 37.7439 10.0631 37.529 9.35354C37.3142 8.62246 36.9811 7.97739 36.5299 7.41832C36.1002 6.85926 35.5523 6.41846 34.8862 6.09593C34.2416 5.75189 33.4788 5.57987 32.5979 5.57987C31.6955 5.57987 30.9112 5.76264 30.2452 6.12818C29.6006 6.47222 29.0634 6.93452 28.6337 7.51508C28.2039 8.07415 27.8817 8.71922 27.6668 9.4503C27.4734 10.1599 27.3767 10.891 27.3767 11.6435C27.3767 12.4176 27.4842 13.1702 27.699 13.9013C27.9139 14.6109 28.2362 15.2452 28.6659 15.8043C29.0956 16.3633 29.6328 16.8149 30.2774 17.1589C30.9435 17.4814 31.7277 17.6427 32.6301 17.6427Z" fill="#2D4CD1"/>
</svg>
