<svg width="46" height="25" viewBox="0 0 46 25" fill="none" xmlns="http://www.w3.org/2000/svg">
<path d="M20.6539 18.3038C20.6539 19.3359 20.439 20.2282 20.0093 20.9808C19.5796 21.7119 18.9887 22.314 18.2367 22.787C17.4847 23.2601 16.6037 23.6149 15.5939 23.8514C14.6055 24.0664 13.5527 24.1739 12.4354 24.1739H1.18726V1.27388H14.4658C15.2608 1.27388 15.9806 1.4459 16.6252 1.78994C17.2698 2.13397 17.8177 2.58552 18.2689 3.14459C18.7201 3.68215 19.0639 4.30571 19.3003 5.01529C19.5581 5.70337 19.687 6.41295 19.687 7.14403C19.687 8.21915 19.4077 9.25126 18.849 10.2404C18.3119 11.208 17.4954 11.9391 16.3996 12.4336C17.7103 12.8207 18.7416 13.498 19.4936 14.4656C20.2671 15.4117 20.6539 16.6911 20.6539 18.3038ZM14.2724 17.0136C14.2724 16.4546 14.122 15.9923 13.8212 15.6267C13.5204 15.2397 13.1337 15.0462 12.661 15.0462H7.47202V18.8843H12.4354C12.951 18.8843 13.3808 18.7231 13.7245 18.4005C14.0898 18.078 14.2724 17.6157 14.2724 17.0136ZM7.47202 6.62797V10.1436H11.7585C12.1883 10.1436 12.575 10.0253 12.9188 9.78882C13.2841 9.5523 13.4667 9.07925 13.4667 8.36967C13.4667 7.7461 13.3163 7.3053 13.0155 7.04727C12.7147 6.76774 12.3602 6.62797 11.9519 6.62797H7.47202Z" fill="#F54068"/>
<path d="M39.103 23.0773C38.308 23.4858 37.4593 23.7976 36.5569 24.0127C35.676 24.2277 34.7413 24.3352 33.7529 24.3352C32.0125 24.3352 30.4333 24.0127 29.0152 23.3676C27.5971 22.701 26.3831 21.8302 25.3733 20.755C24.3634 19.6584 23.5791 18.4113 23.0205 17.0136C22.4619 15.616 22.1825 14.1753 22.1825 12.6916C22.1825 11.1865 22.4726 9.73507 23.0527 8.33741C23.6329 6.93976 24.4386 5.70337 25.4699 4.62825C26.5228 3.55313 27.7582 2.70379 29.1763 2.08022C30.6159 1.43515 32.1844 1.11261 33.8819 1.11261C35.6223 1.11261 37.2015 1.45665 38.6196 2.14472C40.0377 2.8113 41.2517 3.6929 42.2615 4.78952C43.2714 5.88614 44.0449 7.13328 44.5821 8.53093C45.1407 9.92859 45.42 11.3585 45.42 12.8207C45.42 14.2398 45.1622 15.6052 44.6465 16.9169C44.1523 18.207 43.4433 19.3681 42.5194 20.4003L46.0002 24.1739H40.1344L39.103 23.0773ZM33.8174 18.7553C34.2901 18.7553 34.6876 18.7123 35.0099 18.6263L31.239 14.4978H37.1048L38.3618 15.8848C38.5981 15.3902 38.77 14.8741 38.8774 14.3366C38.9849 13.799 39.0386 13.2507 39.0386 12.6916C39.0386 11.9176 38.9311 11.1757 38.7163 10.4661C38.5014 9.73507 38.1684 9.09 37.7172 8.53093C37.2874 7.97187 36.7395 7.53107 36.0735 7.20854C35.4289 6.8645 34.6661 6.69248 33.7852 6.69248C32.8827 6.69248 32.0985 6.87525 31.4324 7.24079C30.7878 7.58483 30.2507 8.04713 29.8209 8.62769C29.3912 9.18676 29.0689 9.83183 28.854 10.5629C28.6607 11.2725 28.564 12.0036 28.564 12.7562C28.564 13.5302 28.6714 14.2828 28.8863 15.0139C29.1011 15.7235 29.4234 16.3578 29.8532 16.9169C30.2829 17.4759 30.82 17.9275 31.4646 18.2715C32.1307 18.5941 32.915 18.7553 33.8174 18.7553Z" fill="#F54068"/>
<path d="M19.4666 17.1912C19.4666 18.2233 19.2518 19.1156 18.822 19.8682C18.3923 20.5993 17.8014 21.2014 17.0494 21.6744C16.2974 22.1475 15.4165 22.5022 14.4066 22.7388C13.4182 22.9538 12.3654 23.0613 11.2481 23.0613H0V0.161268H13.2786C14.0736 0.161268 14.7934 0.333287 15.4379 0.677326C16.0825 1.02136 16.6304 1.47291 17.0817 2.03198C17.5329 2.56954 17.8766 3.1931 18.113 3.90268C18.3708 4.59076 18.4998 5.30034 18.4998 6.03142C18.4998 7.10654 18.2204 8.13865 17.6618 9.12776C17.1246 10.0954 16.3081 10.8265 15.2123 11.321C16.523 11.7081 17.5544 12.3854 18.3064 13.353C19.0799 14.2991 19.4666 15.5785 19.4666 17.1912ZM13.0852 15.901C13.0852 15.342 12.9348 14.8797 12.634 14.5141C12.3332 14.1271 11.9464 13.9335 11.4737 13.9335H6.28476V17.7717H11.2481C11.7638 17.7717 12.1935 17.6105 12.5373 17.2879C12.9026 16.9654 13.0852 16.5031 13.0852 15.901ZM6.28476 5.51536V9.031H10.5713C11.001 9.031 11.3878 8.91274 11.7316 8.67621C12.0968 8.43969 12.2795 7.96664 12.2795 7.25706C12.2795 6.63349 12.129 6.19269 11.8282 5.93466C11.5274 5.65513 11.1729 5.51536 10.7647 5.51536H6.28476Z" fill="white"/>
<path d="M37.9158 21.9647C37.1208 22.3732 36.2721 22.685 35.3696 22.9C34.4887 23.1151 33.5541 23.2226 32.5657 23.2226C30.8253 23.2226 29.246 22.9 27.8279 22.255C26.4098 21.5884 25.1959 20.7176 24.186 19.6424C23.1761 18.5458 22.3919 17.2987 21.8332 15.901C21.2746 14.5034 20.9953 13.0627 20.9953 11.579C20.9953 10.0739 21.2853 8.62246 21.8655 7.2248C22.4456 5.82715 23.2513 4.59076 24.2827 3.51564C25.3355 2.44052 26.571 1.59118 27.9891 0.967607C29.4287 0.322535 30.9972 0 32.6946 0C34.435 0 36.0142 0.344038 37.4323 1.03211C38.8504 1.69869 40.0644 2.58029 41.0743 3.67691C42.0841 4.77353 42.8576 6.02067 43.3948 7.41832C43.9535 8.81598 44.2328 10.2459 44.2328 11.7081C44.2328 13.1272 43.9749 14.4926 43.4593 15.8043C42.9651 17.0944 42.256 18.2555 41.3321 19.2876L44.8129 23.0613H38.9471L37.9158 21.9647ZM32.6301 17.6427C33.1028 17.6427 33.5003 17.5997 33.8226 17.5137L30.0518 13.3852H35.9176L37.1745 14.7721C37.4109 14.2776 37.5827 13.7615 37.6902 13.224C37.7976 12.6864 37.8513 12.1381 37.8513 11.579C37.8513 10.8049 37.7439 10.0631 37.529 9.35354C37.3142 8.62246 36.9811 7.97739 36.5299 7.41832C36.1002 6.85926 35.5523 6.41846 34.8862 6.09593C34.2416 5.75189 33.4788 5.57987 32.5979 5.57987C31.6955 5.57987 30.9112 5.76264 30.2452 6.12818C29.6006 6.47222 29.0634 6.93452 28.6337 7.51508C28.2039 8.07415 27.8817 8.71922 27.6668 9.4503C27.4734 10.1599 27.3767 10.891 27.3767 11.6435C27.3767 12.4176 27.4842 13.1702 27.699 13.9013C27.9139 14.6109 28.2362 15.2452 28.6659 15.8043C29.0956 16.3633 29.6328 16.8149 30.2774 17.1589C30.9435 17.4814 31.7277 17.6427 32.6301 17.6427Z" fill="white"/>
</svg>
