<svg width="18" height="12" viewBox="0 0 18 12" fill="none" xmlns="http://www.w3.org/2000/svg">
<path d="M7.40535 5.424C7.77888 5.2236 8.06128 5.0004 8.25479 4.7592C8.59907 4.3248 8.76896 3.7488 8.76896 3.0348C8.76896 2.34 8.59907 1.746 8.25929 1.248C7.69225 0.4368 6.73255 0.0216 5.37569 0H0V11.7036H5.01228C5.57708 11.7036 6.10024 11.652 6.58403 11.5464C7.06782 11.4396 7.48636 11.244 7.84076 10.9584C8.15579 10.71 8.41906 10.4016 8.62832 10.038C8.9591 9.4884 9.12449 8.8656 9.12449 8.172C9.12449 7.5 8.97935 6.9276 8.69133 6.4572C8.39993 5.9868 7.9724 5.6424 7.40535 5.424ZM2.21755 2.0328H4.63875C5.17092 2.0328 5.6097 2.094 5.95398 2.2152C6.35226 2.3916 6.55141 2.7504 6.55141 3.2976C6.55141 3.7884 6.39952 4.1316 6.09912 4.3248C5.79647 4.518 5.40381 4.6152 4.92227 4.6152H2.21755V2.0328ZM6.04624 9.4668C5.77847 9.6048 5.40156 9.6732 4.9189 9.6732H2.21755V6.552H4.95603C5.43307 6.5556 5.80435 6.6228 6.06987 6.7488C6.54241 6.9768 6.77755 7.3944 6.77755 8.0052C6.77755 8.7252 6.53453 9.21 6.04624 9.4668Z" fill="white"/>
<path d="M16.2699 0.546H11.5029V2.0028H16.2699V0.546Z" fill="white"/>
<path d="M17.9261 6.2952C17.8271 5.6172 17.6088 5.0208 17.269 4.506C16.8966 3.9228 16.4241 3.4956 15.8492 3.2256C15.2765 2.9544 14.6318 2.8188 13.914 2.82C12.709 2.82 11.7302 3.222 10.973 4.02C10.2181 4.8204 9.84005 5.9712 9.84005 7.4712C9.84005 9.0708 10.2575 10.2264 11.0968 10.9356C11.9327 11.646 12.898 12 13.9939 12C15.3204 12 16.3521 11.5788 17.089 10.7388C17.5604 10.2084 17.8271 9.6864 17.8856 9.174H15.6894C15.5623 9.4272 15.4149 9.6252 15.2461 9.7692C14.9401 10.0332 14.5418 10.1652 14.0535 10.1652C13.5889 10.1652 13.1951 10.056 12.8665 9.8388C12.3242 9.4908 12.0407 8.8812 12.0047 8.0136H17.9981C18.0071 7.266 17.9846 6.6912 17.9261 6.2952ZM12.0587 6.5196C12.1375 5.9568 12.3287 5.5104 12.6325 5.1804C12.9363 4.8516 13.3661 4.686 13.9163 4.6848C14.4237 4.6848 14.8478 4.8396 15.1932 5.1504C15.5341 5.4636 15.7265 5.9184 15.7659 6.5196H12.0587Z" fill="white"/>
</svg>
