<svg width="188" height="40" viewBox="0 0 188 40" fill="none" xmlns="http://www.w3.org/2000/svg">
<path fill-rule="evenodd" clip-rule="evenodd" d="M28.5924 28.6369C26.6836 29.4721 25.3713 31.3813 25.3713 33.6086C25.3713 36.5916 27.797 39.0575 30.8193 39.0575C33.8416 39.0575 36.3071 36.5518 36.2276 33.529C36.3469 29.5119 38.4545 26.4493 41.6359 24.4607V24.4209C43.4652 23.5459 44.6979 21.6368 44.6979 19.5288C44.6979 17.5003 43.6242 15.6707 41.8347 14.7162C38.6534 12.8071 36.4662 9.38653 36.2674 5.44896C36.2674 2.46595 33.8018 0 30.8193 0C27.797 0 25.3713 2.46595 25.3713 5.44896C25.3713 7.47741 26.4847 9.26721 28.1549 10.182C35.3925 14.1593 35.8697 24.4209 28.5924 28.6369ZM18.8495 15.7503C18.8495 15.2332 19.0483 14.8355 19.3665 14.4775C19.6448 14.2389 19.9232 14.0798 20.2811 14.0003C20.4402 13.9605 20.639 13.9207 20.8378 13.9207C21.3946 13.9207 22.1501 14.1991 22.5478 14.5571L25.8882 17.9378C26.3257 18.3356 26.5245 18.8924 26.5245 19.4094C26.5245 19.9663 26.3257 20.5231 25.8882 20.9208L22.3092 24.5004C22.0308 24.7789 21.6332 24.9777 21.2355 25.097C20.9571 25.1368 20.6788 25.1368 20.4004 25.097C19.8834 25.0175 19.446 24.7391 19.1279 24.2618C18.9688 23.9834 18.8495 23.6652 18.8495 23.3072V15.7503ZM13.8786 0C10.8961 0 8.47034 2.46595 8.47034 5.44896C8.47034 8.47175 10.8961 10.8979 13.8786 10.8979C16.9009 10.8979 19.3267 8.47175 19.3267 5.44896C19.3267 2.46595 16.9009 0 13.8786 0ZM13.8786 28.1596C10.8961 28.1596 8.47034 30.5858 8.47034 33.6086C8.47034 36.5916 10.8961 39.0575 13.8786 39.0575C16.9009 39.0575 19.3267 36.5916 19.3267 33.6086C19.3267 30.5858 16.9009 28.1596 13.8786 28.1596ZM5.44806 14.0798C2.42578 14.0798 0 16.5458 0 19.5288C0 22.5515 2.42578 24.9777 5.44806 24.9777C8.43057 24.9777 10.8564 22.5515 10.8564 19.5288C10.8564 16.5458 8.43057 14.0798 5.44806 14.0798Z" fill="url(#paint0_linear)"/>
<path d="M177.184 14.8859V18.0678H180.285V28.5282H183.864V18.0678H188V14.8859H183.864V10.6301H180.285V14.8859H177.184Z" fill="#242424"/>
<path d="M175.792 28.5285V14.8862H172.213V28.5285H175.792Z" fill="#242424"/>
<path d="M174.042 13.6133C175.036 13.6133 175.831 12.8178 175.831 11.8235C175.831 10.8689 175.036 10.0337 174.042 10.0337C173.088 10.0337 172.252 10.8689 172.252 11.8235C172.252 12.8178 173.088 13.6133 174.042 13.6133Z" fill="#242424"/>
<path d="M139.684 28.5281H143.223V21.0507C143.223 18.903 144.337 17.6302 146.047 17.6302C148.154 17.6302 149.109 19.4598 149.109 21.0507V28.5281H152.688V21.0507C152.688 19.4598 153.642 17.6302 155.71 17.6302C157.46 17.6302 158.573 18.903 158.573 21.0507V28.5281H162.113V20.5337C162.113 16.3575 158.454 14.6074 155.79 14.6074C153.841 14.6074 152.091 15.3631 150.938 16.5165C149.825 15.3631 148.075 14.6074 146.087 14.6074C142.706 14.6074 139.684 16.9541 139.684 20.5337V28.5281Z" fill="#242424"/>
<path d="M131.054 28.9258C132.923 28.9258 135.111 28.0508 136.463 26.4201C137.815 24.8292 138.212 23.1587 138.212 21.7269C138.212 20.5336 137.894 19.3404 137.298 18.187C136.622 17.0734 135.747 16.1586 134.594 15.5222C133.48 14.8858 132.287 14.5676 131.054 14.5676C129.185 14.5676 127.276 15.4029 126.163 16.5165C124.413 18.2666 123.936 20.3348 123.936 21.7269C123.936 25.6247 127.157 28.9258 131.054 28.9258ZM127.475 21.8859C127.475 21.17 127.674 20.4541 128.112 19.8575C128.947 18.6245 130.219 18.2268 131.094 18.2268C132.088 18.2268 132.963 18.5847 133.679 19.3007C134.395 20.0166 134.753 20.8916 134.753 21.8859C134.753 22.8803 134.395 23.7155 133.679 24.4314C132.963 25.1474 132.088 25.5053 131.094 25.5053C130.378 25.5053 129.702 25.2667 129.106 24.869C127.873 24.0337 127.475 22.761 127.475 21.8859Z" fill="#242424"/>
<path d="M111.688 26.8974C113.677 28.1702 115.586 28.8066 117.335 28.8066C118.33 28.8066 119.244 28.6475 120.159 28.2497C121.869 27.5736 122.982 26.3008 122.982 24.5906C122.982 22.4826 121.71 21.6473 120.636 21.0507C120.238 20.8519 119.483 20.5735 118.369 20.1757C117.256 19.778 116.58 19.4598 116.341 19.2212C116.103 18.9825 115.983 18.7439 115.983 18.5052C115.983 17.9882 116.381 17.6302 117.375 17.6302C117.773 17.6302 118.21 17.7495 118.767 17.9086C119.244 18.1075 120.04 18.5052 121.073 19.0621L122.664 16.4768C121.153 15.3631 119.165 14.6472 117.415 14.6472C116.5 14.6472 115.665 14.8063 114.87 15.1245C113.279 15.8006 112.404 17.0336 112.404 18.6246C112.404 20.2553 113.279 21.4485 116.063 22.4826C117.494 22.9996 118.29 23.3576 118.568 23.5167C119.045 23.7951 119.363 24.1531 119.363 24.5906C119.363 25.2667 118.648 25.8236 117.296 25.8236C115.944 25.8236 114.393 25.0679 113.2 24.2326L111.688 26.8974Z" fill="#242424"/>
<path d="M99.7188 26.8974C101.707 28.1702 103.616 28.8066 105.366 28.8066C106.32 28.8066 107.274 28.6475 108.149 28.2497C109.899 27.5736 110.973 26.3008 110.973 24.5906C110.973 22.4826 109.7 21.6473 108.666 21.0507C108.269 20.8519 107.513 20.5735 106.4 20.1757C105.286 19.778 104.61 19.4598 104.371 19.2212C104.133 18.9825 104.014 18.7439 104.014 18.5052C104.014 17.9882 104.411 17.6302 105.405 17.6302C105.803 17.6302 106.241 17.7495 106.757 17.9086C107.274 18.1075 108.03 18.5052 109.104 19.0621L110.694 16.4768C109.143 15.3631 107.155 14.6472 105.445 14.6472C104.531 14.6472 103.656 14.8063 102.9 15.1245C101.309 15.8006 100.395 17.0336 100.395 18.6246C100.395 20.2553 101.309 21.4485 104.093 22.4826C105.485 22.9996 106.32 23.3576 106.598 23.5167C107.076 23.7951 107.394 24.1531 107.394 24.5906C107.394 25.2667 106.678 25.8236 105.326 25.8236C103.974 25.8236 102.423 25.0679 101.23 24.2326L99.7188 26.8974Z" fill="#242424"/>
<path d="M92.2423 28.9258C94.1113 28.9258 96.2985 28.0508 97.6506 26.4201C99.0026 24.8292 99.4003 23.1587 99.4003 21.7269C99.4003 20.5336 99.0822 19.3404 98.4459 18.187C97.8096 17.0734 96.9348 16.1586 95.7815 15.5222C94.6283 14.8858 93.4751 14.5676 92.2423 14.5676C90.3732 14.5676 88.4644 15.4029 87.351 16.5165C85.6012 18.2666 85.124 20.3348 85.124 21.7269C85.124 25.6247 88.3451 28.9258 92.2423 28.9258ZM88.6633 21.8859C88.6633 21.17 88.8621 20.4541 89.2598 19.8575C90.0949 18.6245 91.3674 18.2268 92.282 18.2268C93.2762 18.2268 94.1511 18.5847 94.8669 19.3007C95.5827 20.0166 95.9008 20.8916 95.9008 21.8859C95.9008 22.8803 95.5827 23.7155 94.8669 24.4314C94.1511 25.1474 93.2762 25.5053 92.282 25.5053C91.5662 25.5053 90.8902 25.2667 90.2937 24.869C89.0609 24.0337 88.6633 22.761 88.6633 21.8859Z" fill="#242424"/>
<path d="M83.4138 28.5281V9.03906H79.8745V28.5281H83.4138Z" fill="#242424"/>
<path d="M71.5629 28.5283C75.6588 28.5283 78.0449 26.5396 78.0449 22.9998C78.0449 21.2895 77.329 19.8975 75.8577 18.7838C77.329 17.7099 78.0449 16.3179 78.0449 14.6076C78.0449 11.1075 75.6588 9.07908 71.5629 9.07908L60.9849 9.03931V28.5283H71.5629ZM64.6434 20.4941H71.6424C73.2331 20.4941 74.1875 21.4089 74.1875 22.8009C74.1875 24.1532 73.1933 25.1476 71.6026 25.1476H64.6036L64.6434 20.4941ZM64.6036 12.4996H71.6026C73.1933 12.4996 74.1875 13.4542 74.1875 14.8065C74.1875 16.2383 73.2331 17.1531 71.6424 17.1531H64.6434L64.6036 12.4996Z" fill="#242424"/>
<defs>
<linearGradient id="paint0_linear" x1="-0.000397669" y1="19.5288" x2="44.7011" y2="19.5288" gradientUnits="userSpaceOnUse">
<stop stop-color="#FFCC67"/>
<stop offset="0.231373" stop-color="#FE785C"/>
<stop offset="0.501961" stop-color="#EA5BDA"/>
<stop offset="1" stop-color="#492AF3"/>
</linearGradient>
</defs>
</svg>
