<svg width="620" height="328" viewBox="0 0 620 328" fill="none" xmlns="http://www.w3.org/2000/svg">
<path d="M278.376 246.707C278.376 260.618 275.48 272.645 269.688 282.789C263.896 292.643 255.933 300.757 245.797 307.133C235.661 313.509 223.787 318.291 210.176 321.479C196.854 324.377 182.664 325.826 167.605 325.826H16V17.1736H194.972C205.687 17.1736 215.389 19.4921 224.077 24.1292C232.765 28.7662 240.149 34.8523 246.231 42.3875C252.313 49.6329 256.946 58.0375 260.132 67.6014C263.607 76.8755 265.344 86.4394 265.344 96.2931C265.344 110.784 261.58 124.695 254.05 138.026C246.81 151.068 235.805 160.922 221.036 167.587C238.701 172.804 252.602 181.933 262.738 194.975C273.164 207.727 278.376 224.971 278.376 246.707ZM192.366 229.318C192.366 221.783 190.338 215.552 186.284 210.625C182.23 205.408 177.017 202.8 170.646 202.8H100.708V254.532H167.605C174.555 254.532 180.347 252.358 184.981 248.011C189.904 243.664 192.366 237.433 192.366 229.318ZM100.708 89.3375V136.722H158.483C164.275 136.722 169.487 135.128 174.121 131.94C179.044 128.752 181.506 122.376 181.506 112.813C181.506 104.408 179.478 98.4667 175.424 94.9889C171.37 91.2213 166.591 89.3375 161.089 89.3375H100.708Z" fill="#F54068"/>
<path d="M527.039 311.046C516.324 316.552 504.884 320.755 492.721 323.653C480.848 326.551 468.25 328 454.929 328C431.471 328 410.186 323.653 391.072 314.958C371.959 305.974 355.596 294.237 341.985 279.746C328.374 264.965 317.804 248.156 310.274 229.318C302.745 210.48 298.98 191.062 298.98 171.065C298.98 150.778 302.889 131.216 310.709 112.378C318.528 93.5398 329.388 76.8755 343.288 62.3847C357.479 47.894 374.131 36.4463 393.244 28.0417C412.647 19.3472 433.788 15 456.666 15C480.124 15 501.409 19.637 520.523 28.9111C539.636 37.8954 555.999 49.7778 569.61 64.5583C583.221 79.3389 593.647 96.1482 600.886 114.986C608.416 133.824 612.181 153.097 612.181 172.804C612.181 191.932 608.706 210.335 601.755 228.014C595.094 245.403 585.538 261.053 573.085 274.964L620 325.826H540.94L527.039 311.046ZM455.798 252.793C462.169 252.793 467.526 252.213 471.87 251.054L421.046 195.41H500.106L517.048 214.103C520.233 207.437 522.55 200.481 523.998 193.236C525.446 185.991 526.17 178.6 526.17 171.065C526.17 160.632 524.722 150.633 521.826 141.069C518.93 131.216 514.441 122.521 508.36 114.986C502.568 107.451 495.183 101.51 486.205 97.1625C477.517 92.5255 467.237 90.2069 455.363 90.2069C443.2 90.2069 432.63 92.6704 423.652 97.5972C414.964 102.234 407.724 108.465 401.932 116.29C396.14 123.825 391.796 132.52 388.9 142.374C386.294 151.937 384.991 161.791 384.991 171.935C384.991 182.368 386.439 192.512 389.335 202.365C392.231 211.929 396.575 220.479 402.367 228.014C408.159 235.549 415.398 241.635 424.086 246.272C433.064 250.619 443.634 252.793 455.798 252.793Z" fill="#F54068"/>
<path d="M262.376 231.707C262.376 245.618 259.48 257.645 253.688 267.789C247.896 277.643 239.933 285.757 229.797 292.133C219.661 298.509 207.787 303.291 194.176 306.479C180.854 309.377 166.664 310.826 151.605 310.826H0V2.17361H178.972C189.687 2.17361 199.389 4.49213 208.077 9.12918C216.765 13.7662 224.149 19.8523 230.231 27.3875C236.313 34.6329 240.946 43.0375 244.132 52.6014C247.607 61.8755 249.344 71.4394 249.344 81.2931C249.344 95.7838 245.58 109.695 238.05 123.026C230.81 136.068 219.805 145.922 205.036 152.587C222.701 157.804 236.602 166.933 246.738 179.975C257.164 192.727 262.376 209.971 262.376 231.707ZM176.366 214.318C176.366 206.783 174.338 200.552 170.284 195.625C166.23 190.408 161.017 187.8 154.646 187.8H84.7076V239.532H151.605C158.555 239.532 164.347 237.358 168.981 233.011C173.904 228.664 176.366 222.433 176.366 214.318ZM84.7076 74.3375V121.722H142.483C148.275 121.722 153.487 120.128 158.121 116.94C163.044 113.752 165.506 107.376 165.506 97.8125C165.506 89.4079 163.478 83.4667 159.424 79.9889C155.37 76.2213 150.591 74.3375 145.089 74.3375H84.7076Z" fill="white"/>
<path d="M511.039 296.046C500.324 301.552 488.884 305.755 476.721 308.653C464.848 311.551 452.25 313 438.929 313C415.471 313 394.186 308.653 375.072 299.958C355.959 290.974 339.596 279.237 325.985 264.746C312.374 249.965 301.804 233.156 294.274 214.318C286.745 195.48 282.98 176.062 282.98 156.065C282.98 135.778 286.889 116.216 294.709 97.3778C302.528 78.5398 313.388 61.8755 327.288 47.3847C341.479 32.894 358.131 21.4463 377.244 13.0417C396.647 4.34722 417.788 0 440.666 0C464.124 0 485.409 4.63704 504.523 13.9111C523.636 22.8954 539.999 34.7778 553.61 49.5583C567.221 64.3389 577.647 81.1482 584.886 99.9861C592.416 118.824 596.181 138.097 596.181 157.804C596.181 176.932 592.706 195.335 585.755 213.014C579.094 230.403 569.538 246.053 557.085 259.964L604 310.826H524.94L511.039 296.046ZM439.798 237.793C446.169 237.793 451.526 237.213 455.87 236.054L405.046 180.41H484.106L501.048 199.103C504.233 192.437 506.55 185.481 507.998 178.236C509.446 170.991 510.17 163.6 510.17 156.065C510.17 145.632 508.722 135.633 505.826 126.069C502.93 116.216 498.441 107.521 492.36 99.9861C486.568 92.4509 479.183 86.5097 470.205 82.1625C461.517 77.5255 451.237 75.2069 439.363 75.2069C427.2 75.2069 416.63 77.6704 407.652 82.5972C398.964 87.2343 391.724 93.4653 385.932 101.29C380.14 108.825 375.796 117.52 372.9 127.374C370.294 136.937 368.991 146.791 368.991 156.935C368.991 167.368 370.439 177.512 373.335 187.365C376.231 196.929 380.575 205.479 386.367 213.014C392.159 220.549 399.398 226.635 408.086 231.272C417.064 235.619 427.634 237.793 439.798 237.793Z" fill="white"/>
</svg>
