<svg width="619" height="328" viewBox="0 0 619 328" fill="none" xmlns="http://www.w3.org/2000/svg">
<g filter="url(#filter0_d)">
<path d="M262.376 231.707C262.376 245.618 259.48 257.645 253.688 267.789C247.896 277.643 239.933 285.757 229.797 292.133C219.661 298.509 207.787 303.291 194.176 306.479C180.854 309.377 166.664 310.826 151.605 310.826H0V2.17361H178.972C189.687 2.17361 199.389 4.49213 208.077 9.12918C216.765 13.7662 224.149 19.8523 230.231 27.3875C236.313 34.6329 240.946 43.0375 244.132 52.6014C247.607 61.8755 249.344 71.4394 249.344 81.2931C249.344 95.7838 245.58 109.695 238.05 123.026C230.81 136.068 219.805 145.922 205.036 152.587C222.701 157.804 236.602 166.933 246.738 179.975C257.164 192.727 262.376 209.971 262.376 231.707ZM176.366 214.318C176.366 206.783 174.338 200.552 170.284 195.625C166.23 190.408 161.017 187.8 154.646 187.8H84.7076V239.532H151.605C158.555 239.532 164.347 237.358 168.981 233.011C173.904 228.664 176.366 222.433 176.366 214.318ZM84.7076 74.3375V121.722H142.483C148.275 121.722 153.487 120.128 158.121 116.94C163.044 113.752 165.506 107.376 165.506 97.8125C165.506 89.4079 163.478 83.4667 159.424 79.9889C155.37 76.2213 150.591 74.3375 145.089 74.3375H84.7076Z" fill="#2D4CD1"/>
<path d="M511.039 296.046C500.324 301.552 488.884 305.755 476.721 308.653C464.848 311.551 452.25 313 438.929 313C415.471 313 394.186 308.653 375.072 299.958C355.959 290.974 339.596 279.237 325.985 264.746C312.374 249.965 301.804 233.156 294.274 214.318C286.745 195.48 282.98 176.062 282.98 156.065C282.98 135.778 286.889 116.216 294.709 97.3778C302.528 78.5398 313.388 61.8755 327.288 47.3847C341.479 32.894 358.131 21.4463 377.244 13.0417C396.647 4.34722 417.788 0 440.666 0C464.124 0 485.409 4.63704 504.523 13.9111C523.636 22.8954 539.999 34.7778 553.61 49.5583C567.221 64.3389 577.647 81.1482 584.886 99.9861C592.416 118.824 596.181 138.097 596.181 157.804C596.181 176.932 592.706 195.335 585.755 213.014C579.094 230.403 569.538 246.053 557.085 259.964L604 310.826H524.94L511.039 296.046ZM439.798 237.793C446.169 237.793 451.526 237.213 455.87 236.054L405.046 180.41H484.106L501.048 199.103C504.233 192.437 506.55 185.481 507.998 178.236C509.446 170.991 510.17 163.6 510.17 156.065C510.17 145.632 508.722 135.633 505.826 126.069C502.93 116.216 498.441 107.521 492.36 99.9861C486.568 92.4509 479.183 86.5097 470.205 82.1625C461.517 77.5255 451.237 75.2069 439.363 75.2069C427.2 75.2069 416.63 77.6704 407.652 82.5972C398.964 87.2343 391.724 93.4653 385.932 101.29C380.14 108.825 375.796 117.52 372.9 127.374C370.294 136.937 368.991 146.791 368.991 156.935C368.991 167.368 370.439 177.512 373.335 187.365C376.231 196.929 380.575 205.479 386.367 213.014C392.159 220.549 399.398 226.635 408.086 231.272C417.064 235.619 427.634 237.793 439.798 237.793Z" fill="#2D4CD1"/>
</g>
<defs>
<filter id="filter0_d" x="0" y="0" width="619" height="328" filterUnits="userSpaceOnUse" color-interpolation-filters="sRGB">
<feFlood flood-opacity="0" result="BackgroundImageFix"/>
<feColorMatrix in="SourceAlpha" type="matrix" values="0 0 0 0 0 0 0 0 0 0 0 0 0 0 0 0 0 0 127 0"/>
<feOffset dx="15" dy="15"/>
<feColorMatrix type="matrix" values="0 0 0 0 0.960784 0 0 0 0 0.25098 0 0 0 0 0.407843 0 0 0 1 0"/>
<feBlend mode="normal" in2="BackgroundImageFix" result="effect1_dropShadow"/>
<feBlend mode="normal" in="SourceGraphic" in2="effect1_dropShadow" result="shape"/>
</filter>
</defs>
</svg>
