<svg width="34" height="20" viewBox="0 0 34 20" fill="none" xmlns="http://www.w3.org/2000/svg">
<path d="M33.8197 18.0622C33.7785 17.9707 33.7401 17.8948 33.7045 17.834C33.1146 16.7387 31.9873 15.3942 30.3233 13.8002L30.2882 13.7637L30.2706 13.7458L30.2528 13.7275H30.2349C29.4797 12.9852 29.0015 12.4861 28.8012 12.2306C28.4348 11.7439 28.3527 11.2512 28.5529 10.752C28.6944 10.3749 29.2259 9.57835 30.1462 8.3614C30.6302 7.71645 31.0136 7.19955 31.2967 6.81011C33.3385 4.01144 34.2238 2.22306 33.9522 1.44425L33.8467 1.26225C33.7758 1.15269 33.5929 1.05245 33.2982 0.961035C33.0029 0.869813 32.6253 0.854728 32.1649 0.915521L27.0668 0.95183C26.9842 0.921657 26.8663 0.92447 26.7126 0.961035C26.5592 0.997601 26.4824 1.01595 26.4824 1.01595L26.3937 1.06165L26.3233 1.11657C26.2642 1.15288 26.1993 1.21674 26.1284 1.30803C26.0579 1.39899 25.999 1.50575 25.9519 1.6274C25.3968 3.09967 24.7657 4.46851 24.0575 5.73386C23.6208 6.48838 23.2197 7.14227 22.8535 7.69593C22.4877 8.2494 22.1809 8.65718 21.9332 8.91858C21.6852 9.18022 21.4614 9.38984 21.2604 9.54818C21.0597 9.70659 20.9065 9.77352 20.8004 9.74904C20.694 9.72455 20.5939 9.70026 20.4991 9.67597C20.334 9.5664 20.2012 9.41739 20.1011 9.22881C20.0005 9.04023 19.9328 8.80287 19.8974 8.51693C19.8622 8.2308 19.8413 7.98469 19.8354 7.77776C19.8298 7.57109 19.8324 7.27875 19.8444 6.90159C19.8566 6.52424 19.8622 6.26892 19.8622 6.13506C19.8622 5.67262 19.8709 5.17074 19.8884 4.62929C19.9063 4.08784 19.9207 3.65883 19.9328 3.34278C19.9449 3.02641 19.9504 2.6917 19.9504 2.33883C19.9504 1.98596 19.9296 1.70922 19.8884 1.50837C19.8478 1.30777 19.7853 1.11305 19.7031 0.924278C19.6203 0.735697 19.4991 0.589819 19.3401 0.486259C19.1809 0.382827 18.9828 0.300747 18.7472 0.239761C18.1216 0.0938189 17.325 0.0148707 16.3571 0.00259691C14.1621 -0.0216949 12.7518 0.124439 12.1263 0.440808C11.8784 0.574476 11.6542 0.757112 11.4537 0.98814C11.2412 1.25592 11.2115 1.40206 11.3649 1.4261C12.0731 1.53547 12.5745 1.79712 12.8696 2.21078L12.9759 2.42999C13.0586 2.58814 13.1412 2.86813 13.2238 3.26959C13.3064 3.67104 13.3596 4.11513 13.3831 4.60161C13.442 5.48998 13.442 6.25044 13.3831 6.88305C13.324 7.51592 13.2682 8.00859 13.2149 8.36146C13.1617 8.71433 13.082 9.00027 12.9759 9.21922C12.8696 9.43823 12.7988 9.57209 12.7633 9.62067C12.7279 9.66926 12.6984 9.69988 12.675 9.71189C12.5216 9.7725 12.3621 9.80337 12.1969 9.80337C12.0316 9.80337 11.8311 9.7181 11.5951 9.54767C11.3592 9.37724 11.1143 9.14315 10.8605 8.845C10.6068 8.54678 10.3205 8.13005 10.0018 7.59474C9.68328 7.05942 9.3528 6.42675 9.01055 5.69672L8.72738 5.16729C8.55036 4.82669 8.30855 4.33075 8.00169 3.67993C7.69465 3.02884 7.42327 2.39904 7.18734 1.79066C7.09304 1.53515 6.95136 1.34063 6.76256 1.20677L6.67396 1.15185C6.61505 1.10327 6.5205 1.05168 6.39079 0.996706C6.26089 0.941794 6.12535 0.902415 5.98361 0.878187L1.13317 0.914498C0.637516 0.914498 0.301211 1.03027 0.12413 1.26149L0.0532607 1.37086C0.0178569 1.43178 0 1.52908 0 1.663C0 1.79686 0.0354038 1.96115 0.106273 2.15568C0.814349 3.87145 1.58437 5.52617 2.41632 7.12009C3.24828 8.71402 3.97124 9.99796 4.58476 10.9708C5.19841 11.9443 5.82389 12.8631 6.46122 13.7268C7.09856 14.5907 7.52042 15.1444 7.72683 15.3876C7.93349 15.6313 8.09581 15.8135 8.21381 15.9351L8.65645 16.3731C8.93968 16.6652 9.35559 17.015 9.90438 17.4225C10.4533 17.8303 11.061 18.2317 11.7278 18.6275C12.3947 19.0226 13.1705 19.3451 14.0557 19.5944C14.9408 19.8441 15.8023 19.9442 16.6403 19.8959H18.6761C19.089 19.8591 19.4018 19.7253 19.6144 19.4943L19.6848 19.4028C19.7322 19.3302 19.7765 19.2173 19.8174 19.0655C19.8589 18.9134 19.8795 18.7459 19.8795 18.5636C19.8674 18.0405 19.906 17.5691 19.9943 17.1493C20.0825 16.7297 20.1831 16.4134 20.2956 16.2003C20.408 15.9874 20.5348 15.8078 20.676 15.6622C20.8175 15.5162 20.9183 15.4278 20.9775 15.3974C21.0362 15.3668 21.0832 15.346 21.1186 15.3335C21.4018 15.2362 21.7351 15.3305 22.1191 15.6167C22.5027 15.9026 22.8625 16.2557 23.199 16.6753C23.5354 17.0953 23.9395 17.5665 24.4115 18.0896C24.8838 18.6129 25.2967 19.0018 25.6506 19.2577L26.0046 19.4767C26.2409 19.6229 26.5478 19.7567 26.9255 19.8784C27.3025 20 27.6329 20.0304 27.9165 19.9696L32.4482 19.8967C32.8964 19.8967 33.2452 19.8202 33.4926 19.6684C33.7404 19.5163 33.8877 19.3488 33.9352 19.1665C33.9826 18.9841 33.9851 18.7771 33.9442 18.5457C33.9022 18.3148 33.8609 18.1534 33.8197 18.0622Z" fill="white"/>
</svg>
